# xmcd
#
# Track frame offsets:
#	150
#	14190
#	42324
#	57095
#	71695
#	92367
#	109171
#	132838
#	149305
#	167537
#	187159
#	204004
#	224848
#	241661
#	263261
#
# Disc length: 4687 seconds
#
# Revision: 0
# Processed by: cddbd v1.5.2PL0 Copyright (c) Steve Scherf et al.
# Submitted via: EasyCDDAExtractor 16.0.0.1
#
DISCID=d3124d0f
DTITLE=Henpicked - Astroturf
DYEAR=2010
DGENRE=country
TTITLE0=Throw The Day Away
TTITLE1=World Of Kings
TTITLE2=Words As Weapons
TTITLE3=Sweet Perfection
TTITLE4=Drift Away
TTITLE5=Build Me A Mountain
TTITLE6=Didn't Mean To Let You Down
TTITLE7=Everybody's Famous
TTITLE8=Since You've Been Gone
TTITLE9=Nobody's Hearing Your Cries
TTITLE10=Over You
TTITLE11=Flying Low
TTITLE12=Shady Days
TTITLE13=Henpicked 
TTITLE14=Bonus Track
EXTD=
EXTT0=
EXTT1=
EXTT2=
EXTT3=
EXTT4=
EXTT5=
EXTT6=
EXTT7=
EXTT8=
EXTT9=
EXTT10=
EXTT11=
EXTT12=
EXTT13=
EXTT14=
PLAYORDER=
